<svg xmlns="http://www.w3.org/2000/svg" xmlns:xlink="http://www.w3.org/1999/xlink" version="1.1" id="Layer_1" x="0px" y="0px" viewBox="0 0 90 90" enable-background="new 0 0 90 90" xml:space="preserve" height="100px" width="100px">
<g>
	<polygon fill-rule="evenodd" clip-rule="evenodd" points="75.039,82.882 58.363,82.882 58.363,56.941 32.422,56.941 32.422,82.882    15.745,82.882 15.745,45.823 12.039,45.823 12.039,86.588 36.128,86.588 36.128,60.647 54.657,60.647 54.657,86.588 78.745,86.588    78.745,45.823 75.039,45.823  "/>
	<polygon fill-rule="evenodd" clip-rule="evenodd" points="48.424,4.027 48.478,3.973 45.858,1.353 28.716,18.495 28.716,5.059    25.01,5.059 25.01,22.201 0,47.211 2.62,49.831 45.804,6.648 87.242,49.831 89.863,47.211  "/>
</g>
</svg>