<svg xmlns="http://www.w3.org/2000/svg" xmlns:xlink="http://www.w3.org/1999/xlink" version="1.1" id="Capa_1" x="0px" y="0px" width="100px" height="100px" viewBox="0 0 100 100" enable-background="new 0 0 100 100" xml:space="preserve">
<g id="Capa_23">
	<path d="M73.253,73.928l-3.284-3.131l-2.15-5.59l-5.669-1.291c-0.803,0.535-2.756,1.824-3.175,2.043   c-0.171,0.082-0.349,0.109-0.621,0.109c-1.146,0-4.767-0.586-6.06-0.801l-4.443,6.27l-3.755-1.807l-2.885-4.279l-4.583,0.336   l-2.592-3.994l-3.445,1.324l-12.162-2.826L12.5,56.643L5,45.914l1.131-12.226l-0.839-5.28l3.473-2.335l47.003,0.159l1.896,3.937   l2.363-0.25l5.192-0.415l3.567,2.82l-6.048,1.47l-0.014,6.288l0.839-3.149c1.389-3.13,1.486-3.231,1.588-3.338l0.199-0.212   l2.222-0.129l3.658,4.907l-1.688,3.47h0.677l7.412-3.222l2.642-2.996l6.321-0.85l3.505-6.014l3.172-0.665L95,36.78l-4.804,1.167   l-0.756,3.79l-5.065,2.762l-2.328,2.389l-1.905,1.243l-0.172,7.491l-5.538,3.852l-1.371,3.334c1.017,2.752,2.177,6.016,2.177,6.568   c0,0.611-0.834,2.34-1.532,3.686L73.253,73.928z M71.226,69.957l1.616,1.541c0.47-0.963,0.888-1.902,0.923-2.158   c-0.062-0.377-1.16-3.52-2.188-6.295l-0.1-0.27l1.754-4.264l5.278-3.674l0.172-7.518l2.486-1.622l2.398-2.44l4.563-2.487   l0.803-4.034l4.35-1.057l-1.174-6.049l-1.068,0.223l-3.538,6.07l-6.488,0.874l-2.495,2.829l-7.993,3.475h-3.34l2.328-4.781   l-2.648-3.551l-0.719,0.042c-0.258,0.534-0.758,1.642-1.212,2.665l-1.338,5.088l-2.347-1.262l0.021-8.667l4.235-1.029l-0.744-0.589   l-4.596,0.367l-3.377,0.358l-1.946-4.041L9.212,27.547l-2.317,1.558l0.721,4.535L6.517,45.512l7.015,10.031l5.565,3.428   l11.383,2.605l4.14-1.588l2.766,4.266l4.565-0.336l3.138,4.656l2.275,1.096l4.26-6.012l0.457,0.078   c1.392,0.236,5.231,0.859,6.267,0.859c0.015,0,0.027,0,0.04,0c0.456-0.266,2.166-1.391,3.205-2.082l0.266-0.176l7.054,1.605   L71.226,69.957z"/>
</g>
</svg>