<?xml version="1.0" encoding="utf-8"?>
<!-- Generator: Adobe Illustrator 15.1.0, SVG Export Plug-In . SVG Version: 6.00 Build 0)  -->
<!DOCTYPE svg PUBLIC "-//W3C//DTD SVG 1.1//EN" "http://www.w3.org/Graphics/SVG/1.1/DTD/svg11.dtd">
<svg version="1.1" id="Layer_1" xmlns="http://www.w3.org/2000/svg" xmlns:xlink="http://www.w3.org/1999/xlink" x="0px" y="0px"
	 width="100px" height="91.43px" viewBox="0 0 100 91.43" enable-background="new 0 0 100 91.43" xml:space="preserve">
<path fill="#010101" d="M91.422,8.582C85.703,2.875,78.204,0,70.72,0.004C63.235,0,55.721,2.859,50.002,8.574
	C44.283,2.859,36.771-0.004,29.284,0C21.796-0.004,14.292,2.867,8.582,8.582C2.871,14.292,0,21.8,0,29.284
	c-0.004,7.492,2.859,15.007,8.578,20.726l41.424,41.42l1.801-1.805L91.422,50.01C97.141,44.292,100,36.776,100,29.284
	C100,21.8,97.125,14.292,91.422,8.582z M87.812,46.404L50.002,84.228L12.183,46.404c-4.734-4.73-7.085-10.914-7.085-17.12
	c0-6.195,2.359-12.371,7.089-17.101c4.727-4.73,10.902-7.085,17.097-7.085c6.207,0,12.386,2.355,17.125,7.085l0.312,0.309
	c-3.531,5.027-5.305,10.921-5.305,16.8l5.09,0.004c0.008-6.18,2.348-12.332,7.043-17.062l0.047-0.051
	c4.733-4.73,10.921-7.082,17.124-7.085c6.195,0,12.366,2.363,17.093,7.093c4.734,4.723,7.094,10.898,7.094,17.097
	C94.891,35.491,92.547,41.674,87.812,46.404z"/>
</svg>
