<svg xmlns="http://www.w3.org/2000/svg" xmlns:xlink="http://www.w3.org/1999/xlink" version="1.1" id="Layer_1" x="0px" y="0px" width="100px" height="100px" viewBox="0 0 100 100" enable-background="new 0 0 100 100" xml:space="preserve">
<g>
	<path d="M97.155,51.265H79.541c0.068-0.193,0.112-0.397,0.112-0.614v-0.204c0-1.015-0.825-1.841-1.84-1.841h-2.659   c-1.015,0-1.841,0.826-1.841,1.841v0.204c0,0.217,0.045,0.421,0.113,0.614H55.607v-6.119h16.275c1.015,0,1.84-0.825,1.84-1.84   V10.993c0-1.015-0.825-1.84-1.84-1.84H28.118c-1.015,0-1.841,0.826-1.841,1.84v32.313c0,1.015,0.826,1.84,1.841,1.84h16.275v6.119   H40.11v-1.841H14.751v1.841H2.845c-1.094,0-1.983,0.889-1.983,1.982v1.146c0,0.916,0.628,1.682,1.474,1.908   c-0.118,0.254-0.189,0.533-0.189,0.831v31.732c0,1.094,0.89,1.983,1.983,1.983h1.083c1.093,0,1.983-0.89,1.983-1.983V61.72h85.761   v27.145c0,1.094,0.89,1.983,1.983,1.983h1.082c1.094,0,1.984-0.89,1.984-1.983V57.132c0-0.313-0.08-0.607-0.211-0.871   c0.779-0.269,1.344-1,1.344-1.868v-1.146C99.139,52.153,98.249,51.265,97.155,51.265z M74.541,50.65v-0.204   c0-0.339,0.275-0.613,0.613-0.613h2.659c0.338,0,0.613,0.274,0.613,0.613v0.204c0,0.339-0.275,0.614-0.613,0.614h-2.659   C74.816,51.265,74.541,50.989,74.541,50.65z M28.118,43.918c-0.338,0-0.614-0.275-0.614-0.613V10.993   c0-0.338,0.275-0.613,0.614-0.613h43.765c0.338,0,0.613,0.275,0.613,0.613v32.313c0,0.338-0.275,0.613-0.613,0.613H55.607H44.393   H28.118z M45.62,45.146h8.76v6.119h-8.76V45.146z M15.979,50.65h22.905v0.614H15.979V50.65z M5.968,88.864   c0,0.417-0.339,0.757-0.756,0.757H4.13c-0.417,0-0.756-0.34-0.756-0.757V57.132c0-0.417,0.339-0.756,0.756-0.756h1.083   c0.417,0,0.756,0.339,0.756,0.756V88.864z M7.195,60.492v-3.36c0-0.268-0.055-0.522-0.151-0.756h86.063   c-0.097,0.233-0.151,0.488-0.151,0.756v3.36H7.195z M96.778,88.864c0,0.417-0.34,0.757-0.757,0.757h-1.082   c-0.417,0-0.756-0.34-0.756-0.757V57.132c0-0.417,0.339-0.756,0.756-0.756h1.082c0.417,0,0.757,0.339,0.757,0.756V88.864z    M97.912,54.393c0,0.417-0.34,0.756-0.757,0.756h-1.134h-1.082H5.212H4.13H2.845c-0.417,0-0.756-0.339-0.756-0.756v-1.146   c0-0.417,0.339-0.756,0.756-0.756h11.907H40.11h4.282h11.215h19.547h2.659h19.342c0.417,0,0.757,0.339,0.757,0.756V54.393z"/>
	<path d="M69.91,34.625V13.827c0-0.966-0.785-1.751-1.751-1.751H31.84c-0.965,0-1.75,0.785-1.75,1.751v20.798   c0,0.965,0.785,1.751,1.75,1.751h36.319C69.125,36.376,69.91,35.59,69.91,34.625z M31.317,34.625V13.827   c0-0.289,0.235-0.524,0.523-0.524h36.319c0.289,0,0.524,0.235,0.524,0.524v20.798c0,0.289-0.235,0.524-0.524,0.524H31.84   C31.552,35.149,31.317,34.914,31.317,34.625z"/>
	<path d="M50.341,37.92h-0.682c-1.015,0-1.841,0.826-1.841,1.84v0.682c0,1.015,0.826,1.841,1.841,1.841h0.682   c1.015,0,1.841-0.826,1.841-1.841V39.76C52.182,38.746,51.355,37.92,50.341,37.92z M50.954,40.442c0,0.338-0.275,0.614-0.613,0.614   h-0.682c-0.339,0-0.613-0.275-0.613-0.614V39.76c0-0.338,0.274-0.613,0.613-0.613h0.682c0.338,0,0.613,0.275,0.613,0.613V40.442z"/>
</g>
</svg>